<svg xmlns="http://www.w3.org/2000/svg" xmlns:xlink="http://www.w3.org/1999/xlink" width="500" zoomAndPan="magnify" viewBox="0 0 375 374.999991" height="500" preserveAspectRatio="xMidYMid meet" version="1.0"><defs><g/><clipPath id="f3dbc52b71"><path d="M 120.417969 72.820312 L 269 72.820312 L 269 222 L 120.417969 222 Z M 120.417969 72.820312 " clip-rule="nonzero"/></clipPath><clipPath id="5f6c5b4ddb"><path d="M 157 87 L 306.894531 87 L 306.894531 274.773438 L 157 274.773438 Z M 157 87 " clip-rule="nonzero"/></clipPath><clipPath id="05e0af5119"><path d="M 87 20.523438 L 304 20.523438 L 304 190 L 87 190 Z M 87 20.523438 " clip-rule="nonzero"/></clipPath><clipPath id="dbadc75efb"><path d="M 84.144531 88 L 231 88 L 231 274.773438 L 84.144531 274.773438 Z M 84.144531 88 " clip-rule="nonzero"/></clipPath></defs><g clip-path="url(#f3dbc52b71)"><path fill="#0e3054" d="M 166.113281 101.285156 C 178.289062 101.285156 186.578125 113.589844 182.109375 124.859375 C 181.300781 126.898438 180.101562 128.746094 178.644531 130.332031 C 171.457031 137.972656 171.457031 156.011719 178.644531 163.652344 C 184.992188 170.421875 184.894531 181.042969 178.289062 187.617188 C 171.550781 194.355469 160.640625 194.355469 153.9375 187.617188 C 147.328125 181.011719 147.199219 170.390625 153.578125 163.652344 C 160.769531 156.011719 160.769531 137.972656 153.578125 130.332031 C 147.199219 123.5625 147.363281 112.941406 153.9375 106.335938 C 157.042969 103.226562 161.351562 101.285156 166.113281 101.285156 Z M 207.109375 192.121094 C 213.457031 198.886719 213.359375 209.507812 206.753906 216.082031 C 200.015625 222.820312 189.105469 222.820312 182.402344 216.082031 C 179.292969 212.972656 177.347656 208.667969 177.347656 203.90625 C 177.347656 199.46875 179.03125 195.292969 182.042969 192.121094 C 189.234375 184.476562 189.234375 166.4375 182.042969 158.796875 C 175.792969 152.15625 175.792969 141.828125 182.042969 135.1875 C 189.234375 127.546875 189.234375 109.507812 182.042969 101.867188 C 179.066406 98.691406 177.347656 94.484375 177.347656 90.046875 C 177.347656 80.527344 185.054688 72.820312 194.578125 72.820312 C 206.753906 72.820312 215.042969 85.125 210.574219 96.394531 C 209.765625 98.433594 208.566406 100.28125 207.109375 101.867188 C 199.921875 109.507812 199.921875 127.546875 207.109375 135.1875 C 213.359375 141.828125 213.359375 152.15625 207.109375 158.796875 C 199.921875 166.4375 199.921875 184.476562 207.109375 192.121094 Z M 239.332031 159.152344 C 232.628906 152.417969 232.628906 141.503906 239.332031 134.800781 C 246.066406 128.097656 256.980469 128.097656 263.683594 134.800781 C 270.417969 141.535156 270.417969 152.449219 263.683594 159.152344 C 256.949219 165.890625 246.066406 165.890625 239.332031 159.152344 Z M 210.867188 106.335938 C 217.601562 99.632812 228.515625 99.632812 235.21875 106.335938 C 241.824219 112.941406 241.953125 123.5625 235.574219 130.332031 C 228.386719 137.972656 228.386719 156.011719 235.574219 163.652344 C 241.921875 170.421875 241.792969 181.042969 235.21875 187.617188 C 228.480469 194.355469 217.570312 194.355469 210.867188 187.617188 C 204.257812 181.011719 204.164062 170.390625 210.507812 163.652344 C 217.699219 156.011719 217.699219 137.972656 210.507812 130.332031 C 204.128906 123.5625 204.257812 112.941406 210.867188 106.335938 Z M 154.875 146.976562 C 154.875 156.496094 147.167969 164.203125 137.648438 164.203125 C 128.125 164.203125 120.417969 156.496094 120.417969 146.976562 C 120.417969 137.457031 128.125 129.75 137.648438 129.75 C 147.167969 129.75 154.875 137.457031 154.875 146.976562 Z M 154.875 146.976562 " fill-opacity="1" fill-rule="nonzero"/></g><g clip-path="url(#5f6c5b4ddb)"><path fill="#49d397" d="M 279.765625 143.179688 L 279.765625 188.214844 C 288.707031 183.050781 297.644531 177.890625 306.585938 172.726562 L 306.589844 212.457031 L 272.175781 232.324219 C 272.183594 222 272.179688 211.675781 272.179688 201.351562 L 233.179688 223.867188 L 233.179688 254.84375 L 198.769531 274.703125 L 198.769531 234.972656 L 272.179688 192.589844 L 272.179688 107.828125 L 306.585938 87.964844 L 306.585938 127.695312 Z M 192.085938 190.339844 L 192.085938 150.609375 L 157.679688 130.742188 L 157.675781 170.476562 Z M 192.085938 190.339844 " fill-opacity="1" fill-rule="evenodd"/></g><g clip-path="url(#05e0af5119)"><path fill="#579fef" d="M 242.363281 78.394531 L 203.359375 55.875 C 212.300781 50.714844 221.242188 45.550781 230.183594 40.390625 L 195.777344 20.523438 L 161.367188 40.394531 C 170.308594 45.550781 179.25 50.714844 188.191406 55.875 L 149.1875 78.394531 L 122.363281 62.90625 L 87.960938 82.773438 L 122.367188 102.640625 L 195.777344 60.257812 L 269.183594 102.636719 L 303.589844 82.773438 L 269.183594 62.90625 Z M 198.769531 189.941406 L 198.773438 150.210938 L 233.179688 130.34375 L 233.179688 170.074219 Z M 198.769531 189.941406 " fill-opacity="1" fill-rule="evenodd"/></g><g clip-path="url(#dbadc75efb)"><path fill="#4d6fed" d="M 111.089844 143.578125 L 111.09375 188.613281 C 102.152344 183.453125 93.210938 178.289062 84.273438 173.125 L 84.269531 212.855469 L 118.679688 232.722656 C 118.675781 222.398438 118.675781 212.074219 118.675781 201.75 L 157.679688 224.265625 L 157.679688 255.242188 L 192.089844 275.101562 L 192.085938 235.371094 L 118.679688 192.988281 L 118.679688 108.226562 L 84.273438 88.363281 L 84.269531 128.089844 Z M 161.367188 125.15625 L 195.777344 105.289062 L 230.183594 125.15625 L 195.777344 145.019531 Z M 161.367188 125.15625 " fill-opacity="1" fill-rule="evenodd"/></g><g fill="#3364cf" fill-opacity="1"><g transform="translate(60.181718, 313.968994)"><g><path d="M 11.203125 0.40625 C 9.347656 0.40625 7.664062 -0.00390625 6.15625 -0.828125 C 4.644531 -1.648438 3.453125 -2.796875 2.578125 -4.265625 C 1.710938 -5.742188 1.28125 -7.445312 1.28125 -9.375 C 1.28125 -11.351562 1.738281 -13.097656 2.65625 -14.609375 C 3.570312 -16.128906 4.832031 -17.320312 6.4375 -18.1875 C 8.050781 -19.050781 9.894531 -19.484375 11.96875 -19.484375 C 14.03125 -19.484375 15.863281 -19.046875 17.46875 -18.171875 C 19.082031 -17.296875 20.34375 -16.085938 21.25 -14.546875 C 22.164062 -13.003906 22.625 -11.210938 22.625 -9.171875 L 22.625 0 L 17.421875 0 L 17.3125 -1.96875 C 16.550781 -1.1875 15.640625 -0.59375 14.578125 -0.1875 C 13.523438 0.207031 12.398438 0.40625 11.203125 0.40625 Z M 11.96875 -4.453125 C 13.394531 -4.453125 14.566406 -4.910156 15.484375 -5.828125 C 16.398438 -6.742188 16.859375 -7.960938 16.859375 -9.484375 C 16.859375 -11.023438 16.390625 -12.257812 15.453125 -13.1875 C 14.523438 -14.125 13.351562 -14.59375 11.9375 -14.59375 C 10.507812 -14.59375 9.332031 -14.125 8.40625 -13.1875 C 7.488281 -12.257812 7.03125 -11.035156 7.03125 -9.515625 C 7.03125 -7.972656 7.492188 -6.742188 8.421875 -5.828125 C 9.359375 -4.910156 10.539062 -4.453125 11.96875 -4.453125 Z M 11.96875 -4.453125 "/></g></g></g><g fill="#3364cf" fill-opacity="1"><g transform="translate(92.936527, 313.968994)"><g><path d="M 7.65625 5.890625 L 1.890625 5.890625 L 1.890625 -9.171875 C 1.890625 -11.210938 2.347656 -13.003906 3.265625 -14.546875 C 4.191406 -16.085938 5.453125 -17.296875 7.046875 -18.171875 C 8.648438 -19.046875 10.484375 -19.484375 12.546875 -19.484375 C 14.617188 -19.484375 16.457031 -19.050781 18.0625 -18.1875 C 19.675781 -17.320312 20.941406 -16.128906 21.859375 -14.609375 C 22.785156 -13.097656 23.25 -11.351562 23.25 -9.375 C 23.25 -7.445312 22.804688 -5.742188 21.921875 -4.265625 C 21.035156 -2.796875 19.84375 -1.648438 18.34375 -0.828125 C 16.851562 -0.00390625 15.175781 0.40625 13.3125 0.40625 C 12.300781 0.40625 11.300781 0.253906 10.3125 -0.046875 C 9.320312 -0.359375 8.4375 -0.847656 7.65625 -1.515625 Z M 12.546875 -4.453125 C 13.972656 -4.453125 15.148438 -4.910156 16.078125 -5.828125 C 17.015625 -6.742188 17.484375 -7.972656 17.484375 -9.515625 C 17.484375 -11.035156 17.019531 -12.257812 16.09375 -13.1875 C 15.175781 -14.125 14.007812 -14.59375 12.59375 -14.59375 C 11.164062 -14.59375 9.984375 -14.125 9.046875 -13.1875 C 8.117188 -12.257812 7.65625 -11.023438 7.65625 -9.484375 C 7.65625 -7.960938 8.113281 -6.742188 9.03125 -5.828125 C 9.957031 -4.910156 11.128906 -4.453125 12.546875 -4.453125 Z M 12.546875 -4.453125 "/></g></g></g><g fill="#3364cf" fill-opacity="1"><g transform="translate(125.691337, 313.968994)"><g><path d="M 11.9375 0.40625 C 9.882812 0.40625 8.050781 -0.0195312 6.4375 -0.875 C 4.832031 -1.738281 3.570312 -2.921875 2.65625 -4.421875 C 1.738281 -5.929688 1.28125 -7.640625 1.28125 -9.546875 C 1.28125 -11.484375 1.738281 -13.195312 2.65625 -14.6875 C 3.570312 -16.1875 4.835938 -17.359375 6.453125 -18.203125 C 8.078125 -19.054688 9.914062 -19.484375 11.96875 -19.484375 C 14.03125 -19.484375 15.859375 -19.054688 17.453125 -18.203125 C 19.054688 -17.359375 20.316406 -16.1875 21.234375 -14.6875 C 22.160156 -13.195312 22.625 -11.5 22.625 -9.59375 C 22.625 -7.675781 22.160156 -5.957031 21.234375 -4.4375 C 20.316406 -2.925781 19.050781 -1.738281 17.4375 -0.875 C 15.832031 -0.0195312 14 0.40625 11.9375 0.40625 Z M 11.96875 -4.484375 C 13.394531 -4.484375 14.566406 -4.945312 15.484375 -5.875 C 16.398438 -6.8125 16.859375 -8.035156 16.859375 -9.546875 C 16.859375 -11.085938 16.390625 -12.316406 15.453125 -13.234375 C 14.523438 -14.160156 13.351562 -14.625 11.9375 -14.625 C 10.53125 -14.625 9.359375 -14.160156 8.421875 -13.234375 C 7.492188 -12.316406 7.03125 -11.113281 7.03125 -9.625 C 7.03125 -8.082031 7.492188 -6.835938 8.421875 -5.890625 C 9.359375 -4.953125 10.539062 -4.484375 11.96875 -4.484375 Z M 11.96875 -4.484375 "/></g></g></g><g fill="#3364cf" fill-opacity="1"><g transform="translate(157.825591, 313.968994)"><g><path d="M 7.859375 0 L 2.171875 0 L 2.171875 -25.453125 L 7.859375 -25.453125 Z M 7.859375 0 "/></g></g></g><g fill="#3364cf" fill-opacity="1"><g transform="translate(176.100596, 313.968994)"><g><path d="M 11.9375 0.40625 C 9.882812 0.40625 8.050781 -0.0195312 6.4375 -0.875 C 4.832031 -1.738281 3.570312 -2.921875 2.65625 -4.421875 C 1.738281 -5.929688 1.28125 -7.640625 1.28125 -9.546875 C 1.28125 -11.484375 1.738281 -13.195312 2.65625 -14.6875 C 3.570312 -16.1875 4.835938 -17.359375 6.453125 -18.203125 C 8.078125 -19.054688 9.914062 -19.484375 11.96875 -19.484375 C 14.03125 -19.484375 15.859375 -19.054688 17.453125 -18.203125 C 19.054688 -17.359375 20.316406 -16.1875 21.234375 -14.6875 C 22.160156 -13.195312 22.625 -11.5 22.625 -9.59375 C 22.625 -7.675781 22.160156 -5.957031 21.234375 -4.4375 C 20.316406 -2.925781 19.050781 -1.738281 17.4375 -0.875 C 15.832031 -0.0195312 14 0.40625 11.9375 0.40625 Z M 11.96875 -4.484375 C 13.394531 -4.484375 14.566406 -4.945312 15.484375 -5.875 C 16.398438 -6.8125 16.859375 -8.035156 16.859375 -9.546875 C 16.859375 -11.085938 16.390625 -12.316406 15.453125 -13.234375 C 14.523438 -14.160156 13.351562 -14.625 11.9375 -14.625 C 10.53125 -14.625 9.359375 -14.160156 8.421875 -13.234375 C 7.492188 -12.316406 7.03125 -11.113281 7.03125 -9.625 C 7.03125 -8.082031 7.492188 -6.835938 8.421875 -5.890625 C 9.359375 -4.953125 10.539062 -4.484375 11.96875 -4.484375 Z M 11.96875 -4.484375 "/></g></g></g><g fill="#3364cf" fill-opacity="1"><g transform="translate(208.234847, 313.968994)"><g><path d="M 27.890625 -19.0625 L 33.625 -19.0625 L 33.625 -9.828125 C 33.625 -7.785156 33.226562 -5.992188 32.4375 -4.453125 C 31.644531 -2.910156 30.546875 -1.710938 29.140625 -0.859375 C 27.734375 -0.015625 26.113281 0.40625 24.28125 0.40625 C 22.894531 0.40625 21.628906 0.132812 20.484375 -0.40625 C 19.335938 -0.957031 18.429688 -1.695312 17.765625 -2.625 C 17.097656 -1.695312 16.1875 -0.957031 15.03125 -0.40625 C 13.882812 0.132812 12.617188 0.40625 11.234375 0.40625 C 9.421875 0.40625 7.804688 -0.015625 6.390625 -0.859375 C 4.984375 -1.710938 3.878906 -2.910156 3.078125 -4.453125 C 2.285156 -5.992188 1.890625 -7.785156 1.890625 -9.828125 L 1.890625 -19.0625 L 7.625 -19.0625 L 7.625 -8.890625 C 7.625 -7.585938 7.960938 -6.519531 8.640625 -5.6875 C 9.316406 -4.863281 10.179688 -4.453125 11.234375 -4.453125 C 12.316406 -4.453125 13.195312 -4.863281 13.875 -5.6875 C 14.550781 -6.519531 14.890625 -7.585938 14.890625 -8.890625 L 14.890625 -19.0625 L 20.625 -19.0625 L 20.625 -8.890625 C 20.625 -7.585938 20.960938 -6.519531 21.640625 -5.6875 C 22.316406 -4.863281 23.195312 -4.453125 24.28125 -4.453125 C 25.332031 -4.453125 26.195312 -4.863281 26.875 -5.6875 C 27.550781 -6.519531 27.890625 -7.585938 27.890625 -8.890625 Z M 27.890625 -19.0625 "/></g></g></g><g fill="#3364cf" fill-opacity="1"><g transform="translate(251.987428, 313.968994)"><g><path d="M 11.203125 0.40625 C 9.347656 0.40625 7.664062 -0.00390625 6.15625 -0.828125 C 4.644531 -1.648438 3.453125 -2.796875 2.578125 -4.265625 C 1.710938 -5.742188 1.28125 -7.445312 1.28125 -9.375 C 1.28125 -11.351562 1.738281 -13.097656 2.65625 -14.609375 C 3.570312 -16.128906 4.832031 -17.320312 6.4375 -18.1875 C 8.050781 -19.050781 9.894531 -19.484375 11.96875 -19.484375 C 14.03125 -19.484375 15.863281 -19.046875 17.46875 -18.171875 C 19.082031 -17.296875 20.34375 -16.085938 21.25 -14.546875 C 22.164062 -13.003906 22.625 -11.210938 22.625 -9.171875 L 22.625 0 L 17.421875 0 L 17.3125 -1.96875 C 16.550781 -1.1875 15.640625 -0.59375 14.578125 -0.1875 C 13.523438 0.207031 12.398438 0.40625 11.203125 0.40625 Z M 11.96875 -4.453125 C 13.394531 -4.453125 14.566406 -4.910156 15.484375 -5.828125 C 16.398438 -6.742188 16.859375 -7.960938 16.859375 -9.484375 C 16.859375 -11.023438 16.390625 -12.257812 15.453125 -13.1875 C 14.523438 -14.125 13.351562 -14.59375 11.9375 -14.59375 C 10.507812 -14.59375 9.332031 -14.125 8.40625 -13.1875 C 7.488281 -12.257812 7.03125 -11.035156 7.03125 -9.515625 C 7.03125 -7.972656 7.492188 -6.742188 8.421875 -5.828125 C 9.359375 -4.910156 10.539062 -4.453125 11.96875 -4.453125 Z M 11.96875 -4.453125 "/></g></g></g><g fill="#3364cf" fill-opacity="1"><g transform="translate(284.742243, 313.968994)"><g><path d="M 7.59375 0 L 1.890625 0 L 1.890625 -9.6875 C 1.890625 -11.644531 2.304688 -13.359375 3.140625 -14.828125 C 3.984375 -16.296875 5.113281 -17.4375 6.53125 -18.25 C 7.945312 -19.070312 9.515625 -19.484375 11.234375 -19.484375 C 12.660156 -19.484375 13.914062 -19.28125 15 -18.875 C 16.082031 -18.476562 17.046875 -17.910156 17.890625 -17.171875 L 15.140625 -13.28125 C 14.835938 -13.601562 14.398438 -13.90625 13.828125 -14.1875 C 13.253906 -14.476562 12.578125 -14.625 11.796875 -14.625 C 10.410156 -14.625 9.363281 -14.1875 8.65625 -13.3125 C 7.945312 -12.4375 7.59375 -11.273438 7.59375 -9.828125 Z M 7.59375 0 "/></g></g></g><g fill="#3364cf" fill-opacity="1"><g transform="translate(310.981149, 313.968994)"><g><path d="M 12.171875 -4.40625 C 13.753906 -4.40625 15.316406 -4.9375 16.859375 -6 L 19.109375 -2 C 17.835938 -1.082031 16.628906 -0.457031 15.484375 -0.125 C 14.335938 0.207031 13.050781 0.375 11.625 0.375 C 9.6875 0.375 7.9375 -0.03125 6.375 -0.84375 C 4.8125 -1.65625 3.570312 -2.800781 2.65625 -4.28125 C 1.738281 -5.769531 1.28125 -7.523438 1.28125 -9.546875 C 1.28125 -11.066406 1.554688 -12.4375 2.109375 -13.65625 C 2.660156 -14.875 3.414062 -15.921875 4.375 -16.796875 C 5.34375 -17.671875 6.445312 -18.335938 7.6875 -18.796875 C 8.925781 -19.253906 10.238281 -19.484375 11.625 -19.484375 C 13.019531 -19.484375 14.328125 -19.296875 15.546875 -18.921875 C 16.765625 -18.554688 17.953125 -17.9375 19.109375 -17.0625 L 16.796875 -12.96875 C 15.992188 -13.5625 15.226562 -13.988281 14.5 -14.25 C 13.78125 -14.519531 12.992188 -14.65625 12.140625 -14.65625 C 11.015625 -14.65625 10.03125 -14.394531 9.1875 -13.875 C 8.351562 -13.363281 7.765625 -12.613281 7.421875 -11.625 L 14.546875 -11.625 L 14.546875 -7.96875 L 7.234375 -7.96875 C 7.535156 -6.84375 8.128906 -5.96875 9.015625 -5.34375 C 9.898438 -4.71875 10.953125 -4.40625 12.171875 -4.40625 Z M 12.171875 -4.40625 "/></g></g></g><g fill="#3364cf" fill-opacity="1"><g transform="translate(190.359053, 363.621931)"><g/></g></g><g fill="#49d397" fill-opacity="1"><g transform="translate(84.701088, 349.069635)"><g><path d="M 22.625 5.890625 L 16.859375 5.890625 L 16.859375 -1.515625 C 16.078125 -0.847656 15.191406 -0.359375 14.203125 -0.046875 C 13.210938 0.253906 12.210938 0.40625 11.203125 0.40625 C 9.347656 0.40625 7.664062 -0.00390625 6.15625 -0.828125 C 4.644531 -1.648438 3.453125 -2.796875 2.578125 -4.265625 C 1.710938 -5.742188 1.28125 -7.445312 1.28125 -9.375 C 1.28125 -11.351562 1.738281 -13.097656 2.65625 -14.609375 C 3.570312 -16.128906 4.832031 -17.320312 6.4375 -18.1875 C 8.050781 -19.050781 9.894531 -19.484375 11.96875 -19.484375 C 14.03125 -19.484375 15.863281 -19.046875 17.46875 -18.171875 C 19.082031 -17.296875 20.34375 -16.085938 21.25 -14.546875 C 22.164062 -13.003906 22.625 -11.210938 22.625 -9.171875 Z M 11.96875 -4.453125 C 13.394531 -4.453125 14.566406 -4.910156 15.484375 -5.828125 C 16.398438 -6.742188 16.859375 -7.960938 16.859375 -9.484375 C 16.859375 -11.023438 16.390625 -12.257812 15.453125 -13.1875 C 14.523438 -14.125 13.351562 -14.59375 11.9375 -14.59375 C 10.507812 -14.59375 9.332031 -14.125 8.40625 -13.1875 C 7.488281 -12.257812 7.03125 -11.035156 7.03125 -9.515625 C 7.03125 -7.972656 7.492188 -6.742188 8.421875 -5.828125 C 9.359375 -4.910156 10.539062 -4.453125 11.96875 -4.453125 Z M 11.96875 -4.453125 "/></g></g></g><g fill="#49d397" fill-opacity="1"><g transform="translate(117.455898, 349.069635)"><g><path d="M 15.625 -9.03125 L 15.625 -19.0625 L 21.3125 -19.0625 L 21.3125 -9.515625 C 21.3125 -7.609375 20.898438 -5.90625 20.078125 -4.40625 C 19.265625 -2.914062 18.132812 -1.738281 16.6875 -0.875 C 15.238281 -0.0195312 13.550781 0.40625 11.625 0.40625 C 9.757812 0.40625 8.097656 -0.0078125 6.640625 -0.84375 C 5.179688 -1.6875 4.023438 -2.851562 3.171875 -4.34375 C 2.316406 -5.84375 1.890625 -7.566406 1.890625 -9.515625 L 1.890625 -19.0625 L 7.59375 -19.0625 L 7.59375 -9.03125 C 7.59375 -7.75 7.960938 -6.691406 8.703125 -5.859375 C 9.453125 -5.035156 10.425781 -4.625 11.625 -4.625 C 12.789062 -4.625 13.75 -5.035156 14.5 -5.859375 C 15.25 -6.691406 15.625 -7.75 15.625 -9.03125 Z M 15.625 -9.03125 "/></g></g></g><g fill="#49d397" fill-opacity="1"><g transform="translate(148.935104, 349.069635)"><g><path d="M 11.203125 0.40625 C 9.347656 0.40625 7.664062 -0.00390625 6.15625 -0.828125 C 4.644531 -1.648438 3.453125 -2.796875 2.578125 -4.265625 C 1.710938 -5.742188 1.28125 -7.445312 1.28125 -9.375 C 1.28125 -11.351562 1.738281 -13.097656 2.65625 -14.609375 C 3.570312 -16.128906 4.832031 -17.320312 6.4375 -18.1875 C 8.050781 -19.050781 9.894531 -19.484375 11.96875 -19.484375 C 14.03125 -19.484375 15.863281 -19.046875 17.46875 -18.171875 C 19.082031 -17.296875 20.34375 -16.085938 21.25 -14.546875 C 22.164062 -13.003906 22.625 -11.210938 22.625 -9.171875 L 22.625 0 L 17.421875 0 L 17.3125 -1.96875 C 16.550781 -1.1875 15.640625 -0.59375 14.578125 -0.1875 C 13.523438 0.207031 12.398438 0.40625 11.203125 0.40625 Z M 11.96875 -4.453125 C 13.394531 -4.453125 14.566406 -4.910156 15.484375 -5.828125 C 16.398438 -6.742188 16.859375 -7.960938 16.859375 -9.484375 C 16.859375 -11.023438 16.390625 -12.257812 15.453125 -13.1875 C 14.523438 -14.125 13.351562 -14.59375 11.9375 -14.59375 C 10.507812 -14.59375 9.332031 -14.125 8.40625 -13.1875 C 7.488281 -12.257812 7.03125 -11.035156 7.03125 -9.515625 C 7.03125 -7.972656 7.492188 -6.742188 8.421875 -5.828125 C 9.359375 -4.910156 10.539062 -4.453125 11.96875 -4.453125 Z M 11.96875 -4.453125 "/></g></g></g><g fill="#49d397" fill-opacity="1"><g transform="translate(181.689916, 349.069635)"><g><path d="M 7.59375 -10.03125 L 7.59375 0 L 1.890625 0 L 1.890625 -9.546875 C 1.890625 -11.460938 2.296875 -13.164062 3.109375 -14.65625 C 3.929688 -16.144531 5.066406 -17.320312 6.515625 -18.1875 C 7.960938 -19.050781 9.65625 -19.484375 11.59375 -19.484375 C 13.445312 -19.484375 15.109375 -19.0625 16.578125 -18.21875 C 18.054688 -17.382812 19.210938 -16.222656 20.046875 -14.734375 C 20.890625 -13.253906 21.3125 -11.523438 21.3125 -9.546875 L 21.3125 0 L 15.625 0 L 15.625 -10.03125 C 15.625 -11.320312 15.253906 -12.378906 14.515625 -13.203125 C 13.785156 -14.035156 12.8125 -14.453125 11.59375 -14.453125 C 10.414062 -14.453125 9.453125 -14.035156 8.703125 -13.203125 C 7.960938 -12.378906 7.59375 -11.320312 7.59375 -10.03125 Z M 7.59375 -10.03125 "/></g></g></g><g fill="#49d397" fill-opacity="1"><g transform="translate(213.134647, 349.069635)"><g><path d="M 4.0625 -14.375 L 1.03125 -14.375 L 1.03125 -19.0625 L 15.71875 -19.0625 L 15.71875 -14.375 L 9.71875 -14.375 L 9.71875 -7 C 9.71875 -6.21875 9.921875 -5.601562 10.328125 -5.15625 C 10.734375 -4.707031 11.289062 -4.484375 12 -4.484375 C 12.507812 -4.484375 13.101562 -4.546875 13.78125 -4.671875 C 14.457031 -4.796875 15.0625 -4.972656 15.59375 -5.203125 L 16.65625 -0.9375 C 15.832031 -0.46875 14.875 -0.128906 13.78125 0.078125 C 12.6875 0.296875 11.710938 0.40625 10.859375 0.40625 C 8.722656 0.40625 7.054688 -0.160156 5.859375 -1.296875 C 4.660156 -2.429688 4.0625 -4.078125 4.0625 -6.234375 Z M 4.0625 -14.375 "/></g></g></g><g fill="#49d397" fill-opacity="1"><g transform="translate(239.13222, 349.069635)"><g><path d="M 15.625 -9.03125 L 15.625 -19.0625 L 21.3125 -19.0625 L 21.3125 -9.515625 C 21.3125 -7.609375 20.898438 -5.90625 20.078125 -4.40625 C 19.265625 -2.914062 18.132812 -1.738281 16.6875 -0.875 C 15.238281 -0.0195312 13.550781 0.40625 11.625 0.40625 C 9.757812 0.40625 8.097656 -0.0078125 6.640625 -0.84375 C 5.179688 -1.6875 4.023438 -2.851562 3.171875 -4.34375 C 2.316406 -5.84375 1.890625 -7.566406 1.890625 -9.515625 L 1.890625 -19.0625 L 7.59375 -19.0625 L 7.59375 -9.03125 C 7.59375 -7.75 7.960938 -6.691406 8.703125 -5.859375 C 9.453125 -5.035156 10.425781 -4.625 11.625 -4.625 C 12.789062 -4.625 13.75 -5.035156 14.5 -5.859375 C 15.25 -6.691406 15.625 -7.75 15.625 -9.03125 Z M 15.625 -9.03125 "/></g></g></g><g fill="#49d397" fill-opacity="1"><g transform="translate(270.611431, 349.069635)"><g><path d="M 7.625 0 L 1.890625 0 L 1.890625 -9.234375 C 1.890625 -11.285156 2.285156 -13.082031 3.078125 -14.625 C 3.878906 -16.164062 4.984375 -17.359375 6.390625 -18.203125 C 7.804688 -19.054688 9.421875 -19.484375 11.234375 -19.484375 C 12.617188 -19.484375 13.882812 -19.210938 15.03125 -18.671875 C 16.1875 -18.128906 17.097656 -17.390625 17.765625 -16.453125 C 18.429688 -17.390625 19.335938 -18.128906 20.484375 -18.671875 C 21.628906 -19.210938 22.894531 -19.484375 24.28125 -19.484375 C 26.113281 -19.484375 27.734375 -19.054688 29.140625 -18.203125 C 30.546875 -17.359375 31.644531 -16.164062 32.4375 -14.625 C 33.226562 -13.082031 33.625 -11.285156 33.625 -9.234375 L 33.625 0 L 27.890625 0 L 27.890625 -10.171875 C 27.890625 -11.484375 27.550781 -12.550781 26.875 -13.375 C 26.195312 -14.207031 25.332031 -14.625 24.28125 -14.625 C 23.21875 -14.625 22.34375 -14.207031 21.65625 -13.375 C 20.96875 -12.550781 20.625 -11.484375 20.625 -10.171875 L 20.625 0 L 14.890625 0 L 14.890625 -10.171875 C 14.890625 -11.484375 14.550781 -12.550781 13.875 -13.375 C 13.195312 -14.207031 12.316406 -14.625 11.234375 -14.625 C 10.179688 -14.625 9.316406 -14.207031 8.640625 -13.375 C 7.960938 -12.550781 7.625 -11.484375 7.625 -10.171875 Z M 7.625 0 "/></g></g></g></svg>