<!-- icon666.com - MILLIONS OF FREE VECTOR ICONS -->
<svg id="Слой_1" viewBox="0 0 128 128" xmlns="http://www.w3.org/2000/svg" fill="#b9b9b9">
  <path d="m83.9 76a2 2 0 0 0 2 1.72 1.43 1.43 0 0 0 .29 0l17.32-2.49a2 2 0 0 0 1.7-2.27l-1.21-8.22a1.94 1.94 0 0 0 -.78-1.31 2 2 0 0 0 -1.48-.38l-17.33 2.49a2 2 0 0 0 -1.7 2.27zm16.42-8.74.61 4.26-13.36 1.96-.57-4.26z"></path>
  <path d="m128 98-2.57-17.82a2 2 0 0 0 -2.27-1.69l-6.92 1-9.7-67.31a2.06 2.06 0 0 0 -.78-1.32 2 2 0 0 0 -1.49-.37l-24.49 3.51h-.13-.14l-19.8 2.85-.19.05h-.21l-22.31 3.25-2.33-15.83a2 2 0 0 0 -2.27-1.7l-30.68 4.38a2 2 0 0 0 -1.72 2.31l1.15 7.92a2 2 0 0 0 2.26 1.69l15.84-2.28 9.5 66a22.79 22.79 0 0 0 10.94 42.76 23.11 23.11 0 0 0 3.3-.24 22.81 22.81 0 0 0 18.44-15.58l64.85-9.35a2 2 0 0 0 1.32-.78 2 2 0 0 0 .4-1.45zm-49.9-79.73 4.47 31-7.45-4.36a2 2 0 0 0 -2.47.36l-5.92 6.28-4.47-31zm-19.8 2.85 5.07 35.14a2 2 0 0 0 1.37 1.62 2.1 2.1 0 0 0 .61.09 2 2 0 0 0 1.45-.63l7.67-8.14 9.66 5.64a2 2 0 0 0 3-2l-5.07-35.14 20.78-3 9.42 65.3-55.07 8a22.64 22.64 0 0 0 -11.53-7.37l-8.14-56.52zm-35.36-7a2.06 2.06 0 0 0 -.78-1.32 2 2 0 0 0 -1.48-.37l-15.84 2.25-.57-4 26.73-3.81 10.52 73a22.17 22.17 0 0 0 -8.94 1.13zm19.48 107.08a18.79 18.79 0 0 1 -5.37-37.2 19.09 19.09 0 0 1 2.7-.2 18.8 18.8 0 0 1 2.67 37.4zm19.93-15.8a22.72 22.72 0 0 0 -.05-6.05 23 23 0 0 0 -2.59-7.71l55.1-7.94 6.92-1 2 13.86z"></path>
</svg>
