<!-- icon666.com - MILLIONS OF FREE VECTOR ICONS --><svg version="1.1" id="Layer_1" xmlns="http://www.w3.org/2000/svg" xmlns:xlink="http://www.w3.org/1999/xlink" x="0px" y="0px" viewBox="0 0 269.969 269.969" style="enable-background:new 0 0 269.969 269.969;" xml:space="preserve"><g id="XMLID_233_"><circle id="XMLID_235_" cx="89.984" cy="152.484" r="15"></circle><circle id="XMLID_236_" cx="179.984" cy="152.484" r="15"></circle><path id="XMLID_237_" d="M254.969,92.499h-18.686l-16.892-59.121c-1.84-6.44-7.726-10.879-14.423-10.879H65 c-6.697,0-12.583,4.439-14.423,10.879L33.686,92.499H15c-8.284,0-15,6.716-15,15c0,8.284,6.716,15,15,15h15v74.97 c0,8.284,6.716,15,15,15h4.984v20c0,8.284,6.716,15,15,15h40c8.284,0,15-6.716,15-15v-20h30v20c0,8.284,6.716,15,15,15h40 c8.284,0,15-6.716,15-15v-20h4.984c8.284,0,15-6.716,15-15v-74.97h15c8.284,0,15-6.716,15-15 C269.969,99.215,263.253,92.499,254.969,92.499z M209.969,182.469h-4.984h-40h-60h-40H60v-59.97h149.969V182.469z M76.314,52.5 h117.34l11.429,40H64.886L76.314,52.5z"></path></g></svg>